# Original R6-style noob test mesh; units: metres
mtllib noob_r6.mtl
o Torso
g Torso
usemtl blue
v -0.300000 -0.150000 0.600000
v 0.300000 -0.150000 0.600000
v 0.300000 0.150000 0.600000
v -0.300000 0.150000 0.600000
v -0.300000 -0.150000 1.200000
v 0.300000 -0.150000 1.200000
v 0.300000 0.150000 1.200000
v -0.300000 0.150000 1.200000
f 1 4 3 2
f 5 6 7 8
f 1 2 6 5
f 4 8 7 3
f 1 5 8 4
f 2 3 7 6
o Head
g Head
usemtl yellow
v -0.300000 -0.150000 1.200000
v 0.300000 -0.150000 1.200000
v 0.300000 0.150000 1.200000
v -0.300000 0.150000 1.200000
v -0.300000 -0.150000 1.500000
v 0.300000 -0.150000 1.500000
v 0.300000 0.150000 1.500000
v -0.300000 0.150000 1.500000
f 9 12 11 10
f 13 14 15 16
f 9 10 14 13
f 12 16 15 11
f 9 13 16 12
f 10 11 15 14
usemtl face
v -0.083000 -0.151000 1.390000
v -0.085947 -0.151000 1.405500
v -0.094000 -0.151000 1.416847
v -0.105000 -0.151000 1.421000
v -0.116000 -0.151000 1.416847
v -0.124053 -0.151000 1.405500
v -0.127000 -0.151000 1.390000
v -0.124053 -0.151000 1.374500
v -0.116000 -0.151000 1.363153
v -0.105000 -0.151000 1.359000
v -0.094000 -0.151000 1.363153
v -0.085947 -0.151000 1.374500
f 17 18 19 20 21 22 23 24 25 26 27 28
usemtl face
v 0.127000 -0.151000 1.390000
v 0.124053 -0.151000 1.405500
v 0.116000 -0.151000 1.416847
v 0.105000 -0.151000 1.421000
v 0.094000 -0.151000 1.416847
v 0.085947 -0.151000 1.405500
v 0.083000 -0.151000 1.390000
v 0.085947 -0.151000 1.374500
v 0.094000 -0.151000 1.363153
v 0.105000 -0.151000 1.359000
v 0.116000 -0.151000 1.363153
v 0.124053 -0.151000 1.374500
f 29 30 31 32 33 34 35 36 37 38 39 40
usemtl face
v -0.120000 -0.151000 1.340000
v -0.100000 -0.151000 1.323194
v -0.080000 -0.151000 1.309444
v -0.060000 -0.151000 1.298750
v -0.040000 -0.151000 1.291111
v -0.020000 -0.151000 1.286528
v 0.000000 -0.151000 1.285000
v 0.020000 -0.151000 1.286528
v 0.040000 -0.151000 1.291111
v 0.060000 -0.151000 1.298750
v 0.080000 -0.151000 1.309444
v 0.100000 -0.151000 1.323194
v 0.120000 -0.151000 1.340000
v -0.120000 -0.151000 1.354000
v -0.100000 -0.151000 1.337194
v -0.080000 -0.151000 1.323444
v -0.060000 -0.151000 1.312750
v -0.040000 -0.151000 1.305111
v -0.020000 -0.151000 1.300528
v 0.000000 -0.151000 1.299000
v 0.020000 -0.151000 1.300528
v 0.040000 -0.151000 1.305111
v 0.060000 -0.151000 1.312750
v 0.080000 -0.151000 1.323444
v 0.100000 -0.151000 1.337194
v 0.120000 -0.151000 1.354000
f 41 42 55 54
f 42 43 56 55
f 43 44 57 56
f 44 45 58 57
f 45 46 59 58
f 46 47 60 59
f 47 48 61 60
f 48 49 62 61
f 49 50 63 62
f 50 51 64 63
f 51 52 65 64
f 52 53 66 65
o LeftArm
g LeftArm
usemtl yellow
v 0.300000 -0.150000 0.600000
v 0.600000 -0.150000 0.600000
v 0.600000 0.150000 0.600000
v 0.300000 0.150000 0.600000
v 0.300000 -0.150000 1.200000
v 0.600000 -0.150000 1.200000
v 0.600000 0.150000 1.200000
v 0.300000 0.150000 1.200000
f 67 70 69 68
f 71 72 73 74
f 67 68 72 71
f 70 74 73 69
f 67 71 74 70
f 68 69 73 72
o RightArm
g RightArm
usemtl yellow
v -0.600000 -0.150000 0.600000
v -0.300000 -0.150000 0.600000
v -0.300000 0.150000 0.600000
v -0.600000 0.150000 0.600000
v -0.600000 -0.150000 1.200000
v -0.300000 -0.150000 1.200000
v -0.300000 0.150000 1.200000
v -0.600000 0.150000 1.200000
f 75 78 77 76
f 79 80 81 82
f 75 76 80 79
f 78 82 81 77
f 75 79 82 78
f 76 77 81 80
o LeftLeg
g LeftLeg
usemtl green
v 0.000000 -0.150000 0.000000
v 0.300000 -0.150000 0.000000
v 0.300000 0.150000 0.000000
v 0.000000 0.150000 0.000000
v 0.000000 -0.150000 0.600000
v 0.300000 -0.150000 0.600000
v 0.300000 0.150000 0.600000
v 0.000000 0.150000 0.600000
f 83 86 85 84
f 87 88 89 90
f 83 84 88 87
f 86 90 89 85
f 83 87 90 86
f 84 85 89 88
o RightLeg
g RightLeg
usemtl green
v -0.300000 -0.150000 0.000000
v 0.000000 -0.150000 0.000000
v 0.000000 0.150000 0.000000
v -0.300000 0.150000 0.000000
v -0.300000 -0.150000 0.600000
v 0.000000 -0.150000 0.600000
v 0.000000 0.150000 0.600000
v -0.300000 0.150000 0.600000
f 91 94 93 92
f 95 96 97 98
f 91 92 96 95
f 94 98 97 93
f 91 95 98 94
f 92 93 97 96
